<svg version="1.1" xmlns="http://www.w3.org/2000/svg" width="768" height="768" viewBox="0 0 768 768" fill="#56CCF2">
<path d="M480 528c0 26.5 21.5 48 48 48s48-21.5 48-48c0-44.1-35.9-80-80-80s-80 35.9-80 80c0 61.8 50.2 112 112 112 65.1 0 100.9-34.4 119.5-63.3 19.7-30.6 24.2-61.1 24.4-62.4l-31.7-4.5c0 0.2-3.9 25.2-19.6 49.6-20.8 32.2-51.9 48.6-92.6 48.6-44.1 0-80-35.9-80-80 0-26.5 21.5-48 48-48 5.6 0 11 1 16 2.7-18.6 6.6-32 24.4-32 45.3zM528 544c-8.8 0-16-7.2-16-16s7.2-16 16-16c8.8 0 15.9 7.1 16 15.8 0 0.1 0 0.1 0 0.2 0 8.8-7.2 16-16 16z"></path>
<path d="M710 643.5c-0.8 0.6-77 60.5-166 60.5-110.9 0-163.5-67.8-214.3-133.4-46.8-60.3-95.2-122.6-185.7-122.6-79.4 0-144 64.6-144 144v16h1.1c7.8 54.2 54.5 96 110.9 96 61.8 0 112-50.2 112-112 0-44.1-35.9-80-80-80s-80 35.9-80 80c0 26.5 21.5 48 48 48s48-21.5 48-48c0-20.9-13.4-38.7-32-45.3 5-1.8 10.4-2.7 16-2.7 26.5 0 48 21.5 48 48 0 44.1-35.9 80-80 80s-80-35.9-80-80c0-61.8 50.2-112 112-112 74.9 0 114.5 51.1 160.4 110.3 53 68.3 113 145.7 239.6 145.7 100.5 0 182.5-64.8 186-67.5l12.5-10-20-25-12.5 10zM112 608c-8.8 0-16-7.2-16-16 0-0.1 0-0.1 0-0.2 0.1-8.7 7.2-15.8 16-15.8s16 7.2 16 16-7.2 16-16 16z"></path>
<path d="M683.7 116.3c-54.4-54.3-126.8-84.3-203.7-84.3-60 0-117.6 18.3-166.4 52.9-40 28.3-71.6 65.7-92.7 109.3-9.5-1.4-19.1-2.2-28.9-2.2-51.3 0-99.5 20-135.8 56.2s-56.2 84.5-56.2 135.8c0 13 1.3 25.9 3.8 38.4l62.7-12.8c-1.7-8.3-2.6-16.9-2.6-25.6 0-70.6 57.4-128 128-128 43.2 0 83.1 21.5 106.9 57.6l53.4-35.2c-18-27.3-42.1-49-70-63.9 38.7-71.9 114.7-118.5 197.8-118.5 123.5 0 224 100.5 224 224v16c0 24.9-3.1 49-9.2 71.7l61.8 16.6c7.6-28.1 11.4-57.8 11.4-88.3v-16c0-76.9-30-149.3-84.3-203.7z"></path>
</svg>
